<svg width="24" height="24" viewBox="0 0 24 24" fill="none" xmlns="http://www.w3.org/2000/svg">
<path d="M15 7.3V7.3C15 6.0854 15 5.47811 14.745 5.02276C14.5648 4.70094 14.2991 4.43523 13.9772 4.25501C13.5219 4 12.9146 4 11.7 4H9C7.11438 4 6.17157 4 5.58579 4.58579C5 5.17157 5 6.11438 5 8V12C5 12.9319 5 13.3978 5.15224 13.7654C5.35523 14.2554 5.74458 14.6448 6.23463 14.8478C6.60218 15 7.06812 15 8 15V15" stroke="#1C1C1C"/>
<rect x="10" y="9" width="10" height="11" rx="2" stroke="#1C1C1C"/>
</svg>
