<svg width="36" height="36" viewBox="0 0 36 36" fill="none" xmlns="http://www.w3.org/2000/svg">
<mask id="mask0_883_3740" style="mask-type:alpha" maskUnits="userSpaceOnUse" x="0" y="0" width="36" height="36">
<rect width="36" height="36" fill="#D9D9D9"/>
</mask>
<g mask="url(#mask0_883_3740)">
<path d="M7.96155 30.7499C7.20385 30.7499 6.5625 30.4874 6.0375 29.9624C5.5125 29.4374 5.25 28.7961 5.25 28.0384V7.96155C5.25 7.20385 5.5125 6.5625 6.0375 6.0375C6.5625 5.5125 7.20385 5.25 7.96155 5.25H28.0384C28.7961 5.25 29.4374 5.5125 29.9624 6.0375C30.4874 6.5625 30.7499 7.20385 30.7499 7.96155V28.0384C30.7499 28.7961 30.4874 29.4374 29.9624 29.9624C29.4374 30.4874 28.7961 30.7499 28.0384 30.7499H7.96155ZM7.96155 28.5H28.0384C28.1538 28.5 28.2596 28.4519 28.3557 28.3557C28.4519 28.2596 28.5 28.1538 28.5 28.0384V7.96155C28.5 7.84615 28.4519 7.74036 28.3557 7.64419C28.2596 7.54804 28.1538 7.49996 28.0384 7.49996H7.96155C7.84615 7.49996 7.74036 7.54804 7.64419 7.64419C7.54804 7.74036 7.49996 7.84615 7.49996 7.96155V28.0384C7.49996 28.1538 7.54804 28.2596 7.64419 28.3557C7.74036 28.4519 7.84615 28.5 7.96155 28.5ZM10.125 25.1249H25.9903L21.0576 18.5481L16.8461 24.0288L13.8461 20.1923L10.125 25.1249Z" fill="#AFAFAF"/>
</g>
</svg>
