<svg width="36" height="36" viewBox="0 0 36 36" fill="none" xmlns="http://www.w3.org/2000/svg">
<mask id="mask0_883_3558" style="mask-type:alpha" maskUnits="userSpaceOnUse" x="0" y="0" width="36" height="36">
<rect width="36" height="36" transform="matrix(-1 0 0 1 36 0)" fill="#D9D9D9"/>
</mask>
<g mask="url(#mask0_883_3558)">
<path d="M26.4231 25.1249H19.3269V22.875H26.4231V25.1249ZM11.8269 25.1249H9.57701V22.875H11.8269V25.1249ZM26.4231 19.1249H19.3269V16.875H26.4231V19.1249ZM11.8269 19.1249H9.57701V10.875H11.8269V19.1249ZM26.4231 13.1249H19.3269V10.875H26.4231V13.1249ZM29.5384 30.7499C30.2961 30.7499 30.9375 30.4874 31.4625 29.9624C31.9875 29.4374 32.25 28.7961 32.25 28.0384V7.96155C32.25 7.20385 31.9875 6.5625 31.4625 6.0375C30.9375 5.5125 30.2961 5.25 29.5384 5.25H6.46162C5.70392 5.25 5.06257 5.5125 4.53757 6.0375C4.01257 6.5625 3.75007 7.20385 3.75007 7.96155V28.0384C3.75007 28.7961 4.01257 29.4374 4.53757 29.9624C5.06257 30.4874 5.70392 30.7499 6.46162 30.7499H29.5384ZM29.5384 28.5H6.46162C6.34622 28.5 6.24043 28.4519 6.14426 28.3557C6.04811 28.2596 6.00003 28.1538 6.00003 28.0384V7.96155C6.00003 7.84615 6.04811 7.74036 6.14426 7.64419C6.24043 7.54804 6.34622 7.49996 6.46162 7.49996H29.5384C29.6538 7.49996 29.7596 7.54804 29.8558 7.64419C29.952 7.74036 30 7.84615 30 7.96155V28.0384C30 28.1538 29.952 28.2596 29.8558 28.3557C29.7596 28.4519 29.6538 28.5 29.5384 28.5Z" fill="#AFAFAF"/>
</g>
</svg>
